<svg width="1200" height="630" viewBox="0 0 1200 630" xmlns="http://www.w3.org/2000/svg">
  <defs>
    <linearGradient id="bg" x1="0" y1="0" x2="1" y2="1">
      <stop offset="0" stop-color="#F7F1E6"/><stop offset="1" stop-color="#EFE7DA"/>
    </linearGradient>
    <linearGradient id="tile" x1="0" y1="0" x2="1" y2="1">
      <stop offset="0" stop-color="#C46A38"/><stop offset="1" stop-color="#A8431F"/>
    </linearGradient>
    <filter id="ds" x="-30%" y="-30%" width="160%" height="160%">
      <feDropShadow dx="0" dy="12" stdDeviation="18" flood-color="#3A1A0C" flood-opacity="0.22"/>
    </filter>
  </defs>
  <rect width="1200" height="630" fill="url(#bg)"/>
  <!-- icon tile -->
  <g filter="url(#ds)">
    <rect x="92" y="171" width="288" height="288" rx="64" fill="url(#tile)"/>
  </g>
  <rect x="150" y="207" width="172" height="172" rx="20" fill="#FFFDF9"/>
  <text x="236" y="318" text-anchor="middle" font-family="Newsreader, Georgia, serif" font-weight="600" font-size="96" fill="#211D18" letter-spacing="-3">CV</text>
  <rect x="200" y="338" width="72" height="8" rx="4" fill="#B9502E"/>
  <!-- text -->
  <text x="440" y="250" font-family="Newsreader, Georgia, serif" font-size="74" font-weight="600" fill="#211D18">CV Maker Guide</text>
  <text x="442" y="316" font-family="Hanken Grotesk, sans-serif" font-size="32" font-weight="500" fill="#B9502E">Build an ATS-ready CV — free</text>
  <text x="442" y="372" font-family="Hanken Grotesk, sans-serif" font-size="25" fill="#6F655A">Resume builder · ATS checker · cover-letter guide</text>
  <g font-family="Hanken Grotesk, sans-serif" font-size="22" font-weight="600">
    <rect x="442" y="410" width="176" height="54" rx="27" fill="#FFFDF9" stroke="#E2D8C8" stroke-width="2"/>
    <text x="530" y="444" fill="#211D18" text-anchor="middle">CV Builder</text>
    <rect x="634" y="410" width="200" height="54" rx="27" fill="#FFFDF9" stroke="#E2D8C8" stroke-width="2"/>
    <text x="734" y="444" fill="#211D18" text-anchor="middle">ATS Checker</text>
    <rect x="850" y="410" width="150" height="54" rx="27" fill="#FFFDF9" stroke="#E2D8C8" stroke-width="2"/>
    <text x="925" y="444" fill="#211D18" text-anchor="middle">Course</text>
  </g>
</svg>
